<svg width="216" height="50" viewBox="0 0 216 50" fill="none" xmlns="http://www.w3.org/2000/svg">
<g clip-path="url(#clip0_658_5071)">
<path d="M23.9022 46.6187C23.5113 46.4055 22.4805 45.8368 21.592 45.357C20.7212 44.8772 19.6372 44.2907 19.1929 44.0597C18.7486 43.8287 18.0733 43.4555 17.6824 43.2423C13.2751 40.8432 12.7953 40.5766 10.574 39.3859C9.79203 38.9772 8.28149 38.142 7.19746 37.5555C6.13119 36.9691 4.47849 36.0983 3.55439 35.6007C2.6303 35.1209 1.65289 34.57 1.38633 34.3923C1.13754 34.1968 0.835428 34.0546 0.728802 34.0546C0.622175 34.0546 0.480007 33.8414 0.426694 33.5926C0.248984 32.8995 0.657717 32.6152 3.73211 31.2468C5.24264 30.5715 7.30408 29.6297 8.29926 29.1676C10.1119 28.3146 10.1119 28.3146 9.66763 27.3194C9.41883 26.7685 9.0101 25.6489 8.76131 24.8137C8.13932 22.7523 7.99715 19.1625 8.44143 16.9767C9.93419 9.60172 15.9763 4.0927 23.4046 3.32855C28.7004 2.77765 33.7829 4.66137 37.4437 8.51768C42.0998 13.4225 43.4326 20.8685 40.7136 26.8574C40.3404 27.6748 40.2516 28.0303 40.3937 28.1724C40.5004 28.2791 40.6425 28.3679 40.7136 28.3679C40.7847 28.3679 41.9043 28.8833 43.2016 29.5053C46.4359 31.0336 48.4973 31.9932 49.1904 32.2598C49.7235 32.4908 49.7591 32.5619 49.7591 33.3616C49.7591 33.9836 49.688 34.2323 49.5103 34.2323C49.3859 34.2323 48.4085 34.7122 47.36 35.2986C46.3115 35.8851 45.4229 36.3649 45.4052 36.3649C45.3696 36.3649 44.8009 36.667 44.1256 37.0402C43.4681 37.4311 42.2775 38.0709 41.4955 38.4974C40.7136 38.9239 39.6829 39.4748 39.1853 39.7414C38.7055 40.0079 37.5859 40.6121 36.6974 41.0742C35.8266 41.5362 35.0269 41.9805 34.9203 42.0516C34.8314 42.1227 34.0317 42.567 33.1432 43.029C30.442 44.4685 29.2513 45.1082 28.7004 45.4281C25.7149 47.1519 25.164 47.294 23.9022 46.6187Z" fill="currentcolor"></path>
<path d="M21.5906 36.9691C17.6455 36.0983 13.9313 33.717 11.4434 30.4649C10.466 29.2209 9.39973 26.9462 8.77775 24.8492C8.13799 22.7523 7.99582 19.1625 8.4401 16.9767C9.93286 9.60171 15.975 4.0927 23.4033 3.32855C28.6991 2.77765 33.7816 4.66137 37.4424 8.51768C42.0629 13.3869 43.4135 20.7975 40.7656 26.733C40.5168 27.2839 40.2858 27.9059 40.2324 28.0836C40.108 28.7056 38.5442 30.9092 37.3535 32.1354C35.3276 34.2323 32.5909 35.885 29.6587 36.7381C27.8816 37.2534 23.4388 37.3778 21.5906 36.9691Z" fill="#FF1E00"></path>
<path d="M23.9017 46.6235C23.5107 46.4103 22.48 45.8416 21.5914 45.3618C20.7206 44.882 19.6366 44.2955 19.1923 44.0645C18.7481 43.8335 18.0728 43.4603 17.6818 43.247C13.2746 40.8479 12.7948 40.5814 10.5734 39.3907C9.79147 38.982 8.28093 38.1467 7.1969 37.5603C6.13064 36.9738 4.47793 36.1031 3.55384 35.6055C2.62974 35.1257 1.65234 34.5748 1.38577 34.397C1.13698 34.2016 0.834869 34.0594 0.728243 34.0594C0.408364 34.0594 0.283967 33.1886 0.550532 32.8687C0.781556 32.6022 3.18064 31.4115 4.0692 31.1272C4.40685 31.0206 4.46016 31.0561 4.40685 31.4115C4.33576 31.9091 4.10474 31.7669 12.7948 36.4585C16.5622 38.5022 20.774 40.7946 22.1779 41.5588C23.7417 42.4118 24.9324 42.9449 25.2523 42.9449C25.6077 42.9449 28.611 41.4166 34.351 38.2889C39.0604 35.7299 43.5742 33.2952 44.3739 32.8687C45.9911 31.998 46.2932 31.7314 46.151 31.216C46.0621 30.8784 46.0977 30.8784 46.7019 31.1449C47.0395 31.2871 47.4127 31.4648 47.5194 31.5537C47.626 31.6248 48.1769 31.8736 48.7456 32.1046C49.7585 32.4955 49.7585 32.4955 49.7585 33.3663C49.7585 33.9883 49.6874 34.2371 49.5097 34.2371C49.3853 34.2371 48.4079 34.7169 47.3594 35.3034C46.3109 35.8898 45.4224 36.3696 45.4046 36.3696C45.3691 36.3696 44.8004 36.6717 44.1251 37.0449C43.4676 37.4359 42.2769 38.0757 41.495 38.5022C40.7131 38.9287 39.6823 39.4796 39.1847 39.7461C38.7049 40.0127 37.5854 40.6169 36.6968 41.079C35.826 41.541 35.0263 41.9853 34.9197 42.0564C34.8308 42.1274 34.0312 42.5717 33.1426 43.0338C30.4414 44.4732 29.2507 45.113 28.6998 45.4329C25.7143 47.1567 25.1634 47.2988 23.9017 46.6235Z" fill="#AEF7D9"></path>
<path d="M18.2152 27.8465C18.0553 27.6688 17.9131 27.3134 17.9131 27.1001C17.9131 26.7447 19.548 22.3908 22.498 14.8559C23.0134 13.523 23.4932 12.2258 23.5465 11.977C23.8308 10.8574 25.3769 10.3065 26.1055 11.0529C26.301 11.2484 26.8697 12.4923 27.3673 13.8074C28.9133 17.8947 29.6953 19.9206 29.9441 20.4715C30.726 22.3019 32.3431 26.8335 32.3431 27.189C32.3431 28.042 31.0814 28.5573 30.5483 27.9176C30.4061 27.7576 30.0151 26.9402 29.6775 26.1049C28.7534 23.8302 28.6112 23.7592 25.0393 23.7592C22.2137 23.7592 22.2137 23.7592 21.5561 24.4345C21.0941 24.8965 20.7564 25.5007 20.4721 26.336C20.2411 27.029 19.9212 27.7221 19.779 27.8998C19.4059 28.3085 18.6062 28.2908 18.2152 27.8465ZM26.6387 20.9691C27.1718 20.4004 27.2251 20.2583 27.1362 19.5474C26.8519 16.8995 23.1022 17.0595 23.1022 19.7074C23.1022 20.3116 23.4932 21.0402 23.973 21.3601C24.8971 21.9465 25.839 21.8221 26.6387 20.9691Z" fill="#FFFDFD"></path>
</g>
<path opacity="0.9" d="M75.7594 33.5H79.4416L73.1968 16.1093H69.1415L62.8967 33.5H66.554L67.6985 30.191H74.615L75.7594 33.5ZM73.6695 27.4045H68.6439L71.1567 20.1397L73.6695 27.4045ZM80.8801 26.5586C80.8801 30.8628 83.6666 33.7239 87.1746 33.7239C89.3391 33.7239 90.9065 32.6541 91.7275 31.4599V33.5995C91.7275 36.1621 90.2348 37.2568 88.319 37.2568C86.5775 37.2568 85.2838 36.4358 84.9354 35.1918H81.4772C81.8255 38.3515 84.5374 40.2921 88.4186 40.2921C92.9466 40.2921 95.2355 37.3314 95.2355 33.5995V19.7168H91.7275V21.6823C90.9065 20.4881 89.3391 19.4929 87.1746 19.4929C83.6666 19.4929 80.8801 22.2545 80.8801 26.5586ZM91.7275 26.6084C91.7275 29.2207 89.986 30.6637 88.0703 30.6637C86.2043 30.6637 84.4379 29.171 84.4379 26.5586C84.4379 23.9463 86.2043 22.5531 88.0703 22.5531C89.986 22.5531 91.7275 23.9961 91.7275 26.6084ZM102.121 26.6333C102.121 23.9712 103.364 23.175 105.429 23.175H106.35V19.5178C104.434 19.5178 102.991 20.4383 102.121 21.8564V19.7168H98.6374V33.5H102.121V26.6333ZM122.007 26.6084C122.007 22.2545 118.897 19.4929 114.916 19.4929C110.935 19.4929 107.825 22.2545 107.825 26.6084C107.825 30.9374 110.836 33.7239 114.816 33.7239C118.822 33.7239 122.007 30.9374 122.007 26.6084ZM111.358 26.6084C111.358 23.8468 113.025 22.5282 114.866 22.5282C116.707 22.5282 118.424 23.8468 118.424 26.6084C118.424 29.3451 116.657 30.6886 114.816 30.6886C112.95 30.6886 111.358 29.3451 111.358 26.6084ZM124.562 16.1342V33.5H133.767V30.7384H128.045V16.1342H124.562ZM141.902 22.354C143.693 22.354 145.136 23.4985 145.186 25.3147H138.643C138.917 23.4238 140.235 22.354 141.902 22.354ZM148.445 29.171H144.689C144.241 30.0915 143.42 30.8379 141.927 30.8379C140.185 30.8379 138.792 29.6934 138.618 27.6533H148.694C148.769 27.2055 148.794 26.7577 148.794 26.3098C148.794 22.2047 145.982 19.4929 142.002 19.4929C137.921 19.4929 135.085 22.2545 135.085 26.6084C135.085 30.9374 137.996 33.7239 142.002 33.7239C145.41 33.7239 147.699 31.7087 148.445 29.171ZM150.44 26.5586C150.44 30.8628 153.227 33.7239 156.71 33.7239C158.899 33.7239 160.467 32.679 161.288 31.4848V33.5H164.796V19.7168H161.288V21.6823C160.467 20.5378 158.949 19.4929 156.735 19.4929C153.227 19.4929 150.44 22.2545 150.44 26.5586ZM161.288 26.6084C161.288 29.2207 159.546 30.6637 157.631 30.6637C155.765 30.6637 153.998 29.171 153.998 26.5586C153.998 23.9463 155.765 22.5531 157.631 22.5531C159.546 22.5531 161.288 23.9961 161.288 26.6084ZM167.302 26.5586C167.302 30.8628 170.089 33.7239 173.597 33.7239C175.761 33.7239 177.329 32.6541 178.15 31.4599V33.5995C178.15 36.1621 176.657 37.2568 174.741 37.2568C172.999 37.2568 171.706 36.4358 171.357 35.1918H167.899C168.248 38.3515 170.959 40.2921 174.841 40.2921C179.369 40.2921 181.658 37.3314 181.658 33.5995V19.7168H178.15V21.6823C177.329 20.4881 175.761 19.4929 173.597 19.4929C170.089 19.4929 167.302 22.2545 167.302 26.5586ZM178.15 26.6084C178.15 29.2207 176.408 30.6637 174.492 30.6637C172.626 30.6637 170.86 29.171 170.86 26.5586C170.86 23.9463 172.626 22.5531 174.492 22.5531C176.408 22.5531 178.15 23.9961 178.15 26.6084ZM198.071 19.7168H194.563V27.305C194.563 29.5193 193.369 30.7135 191.478 30.7135C189.637 30.7135 188.418 29.5193 188.418 27.305V19.7168H184.935V27.8026C184.935 31.5843 187.249 33.6742 190.458 33.6742C192.175 33.6742 193.693 32.9278 194.563 31.7584V33.5H198.071V19.7168ZM207.429 22.354C209.221 22.354 210.664 23.4985 210.713 25.3147H204.17C204.444 23.4238 205.762 22.354 207.429 22.354ZM213.973 29.171H210.216C209.768 30.0915 208.947 30.8379 207.454 30.8379C205.713 30.8379 204.319 29.6934 204.145 27.6533H214.221C214.296 27.2055 214.321 26.7577 214.321 26.3098C214.321 22.2047 211.51 19.4929 207.529 19.4929C203.449 19.4929 200.612 22.2545 200.612 26.6084C200.612 30.9374 203.523 33.7239 207.529 33.7239C210.937 33.7239 213.226 31.7087 213.973 29.171Z" fill="currentcolor"></path>
<defs>
<clipPath id="clip0_658_5071">
<rect width="49.7589" height="49.7589" fill="currentcolor" transform="translate(0 0.117188)"></rect>
</clipPath>
</defs>
</svg>