<svg width="25" height="26" viewBox="0 0 25 26" fill="none" xmlns="http://www.w3.org/2000/svg">
<path d="M10 17.5H2C1.44772 17.5 1 17.9477 1 18.5V23.5C1 24.0523 1.44772 24.5 2 24.5H10C10.5523 24.5 11 24.0523 11 23.5V18.5C11 17.9477 10.5523 17.5 10 17.5Z" stroke="#475467" stroke-width="1.5" stroke-linecap="round"/>
<path d="M15 24.5H23C23.5523 24.5 24 24.0523 24 23.5V12.5C24 11.9477 23.5523 11.5 23 11.5L15 11.5C14.4477 11.5 14 11.9477 14 12.5L14 23.5C14 24.0523 14.4477 24.5 15 24.5Z" stroke="#475467" stroke-width="1.5" stroke-linecap="round"/>
<path d="M15 8.5L23 8.5C23.5523 8.5 24 8.05228 24 7.5V2.5C24 1.94772 23.5523 1.5 23 1.5L15 1.5C14.4477 1.5 14 1.94772 14 2.5V7.5C14 8.05228 14.4477 8.5 15 8.5Z" stroke="#475467" stroke-width="1.5" stroke-linecap="round"/>
<path d="M10 1.5H2C1.44772 1.5 1 1.94772 1 2.5V13.5C1 14.0523 1.44772 14.5 2 14.5H10C10.5523 14.5 11 14.0523 11 13.5V2.5C11 1.94772 10.5523 1.5 10 1.5Z" stroke="#475467" stroke-width="1.5" stroke-linecap="round"/>
</svg>
